Coordinates
version=1
nRows=24
nColumns=24
inDegrees=yes

Units are S.I. units (second, meters, Newtons, ...)
Angles are in degrees.

endheader
time	pelvis_tilt	pelvis_list	pelvis_rotation	pelvis_tx	pelvis_ty	pelvis_tz	hip_flexion_r	hip_adduction_r	hip_rotation_r	knee_angle_r	ankle_angle_r	subtalar_angle_r	mtp_angle_r	hip_flexion_l	hip_adduction_l	hip_rotation_l	knee_angle_l	ankle_angle_l	subtalar_angle_l	mtp_angle_l	lumbar_extension	lumbar_bending	lumbar_rotation
      3.70500000	     -9.80344340	     -2.83763624	     13.49186757	     -1.25320445	     -0.04676569	      0.61965898	     37.17989666	     -3.98387115	    -22.10084866	    -13.27146555	     -0.77970060	      3.19809796	      2.88095765	     -5.27114545	      0.09617424	     -2.48899757	    -15.24587010	     20.03604100	     22.98051587	     -5.90986189	      6.79294673	     -0.26588024	    -16.29168569
      3.71000000	     -9.77195484	     -3.20992627	     13.57373731	     -1.24598374	     -0.04789945	      0.61968985	     37.17315772	     -3.61694498	    -22.24190377	    -13.69831695	     -1.38544774	      2.83486461	      2.87360697	     -5.35158515	     -0.51636999	     -2.88357106	    -15.91329850	     20.13506074	     23.61232028	     -5.63688396	      6.90711163	      0.16291834	    -16.43480195
      3.71500000	     -9.76006534	     -3.62624640	     13.60637303	     -1.23868483	     -0.04901879	      0.61975370	     37.20015185	     -3.19613026	    -22.28327322	    -14.17400375	     -2.14003627	      2.39299404	      2.99109852	     -5.38273535	     -1.17211036	     -3.32953900	    -16.63350101	     20.20304439	     24.23005878	     -5.36423006	      7.06440552	      0.64636543	    -16.52590425
      3.72000000	     -9.73830826	     -4.03990910	     13.58496342	     -1.23135470	     -0.05008054	      0.61988733	     37.26206027	     -2.76485606	    -22.29377689	    -14.76941510	     -3.00321477	      1.84571244	      3.15953768	     -5.42535804	     -1.82999990	     -3.82985541	    -17.35827821	     20.19730725	     24.84403525	     -5.06466210	      7.21014909	      1.14234215	    -16.52595262
      3.72500000	     -9.72839634	     -4.48633379	     13.55643397	     -1.22398539	     -0.05106972	      0.61998060	     37.35288054	     -2.32169469	    -22.26716956	    -15.43039268	     -3.91317990	      1.26746374	      3.26486607	     -5.43080892	     -2.51035194	     -4.25575533	    -18.11687493	     20.11338220	     25.33097824	     -4.73860334	      7.38509546	      1.67458497	    -16.54394839
      3.73000000	     -9.73284058	     -4.97195659	     13.51079920	     -1.21657536	     -0.05197137	      0.62005387	     37.46741792	     -1.85148018	    -22.17398818	    -16.13266009	     -4.81796165	      0.72712924	      3.27349342	     -5.39056634	     -3.21931706	     -4.60118775	    -18.92068864	     19.93986997	     25.69579733	     -4.40099769	      7.59333578	      2.25462815	    -16.51873202
      3.73500000	     -9.70829465	     -5.42716238	     13.39434866	     -1.20918363	     -0.05280322	      0.62030466	     37.61039223	     -1.36252686	    -22.03126030	    -16.96212446	     -5.71228140	     -0.08171298	      3.20886861	     -5.36183492	     -3.93101892	     -5.16660748	    -19.77843383	     19.67586300	     26.24806395	     -3.89123740	      7.74809348	      2.80800765	    -16.44684353
      3.74000000	     -9.70203908	     -5.90689190	     13.26748240	     -1.20176738	     -0.05354349	      0.62049988	     37.77437786	     -0.86188836	    -21.83178356	    -17.82407256	     -6.51207263	     -0.83121545	      3.03844947	     -5.28059750	     -4.65236540	     -5.62455256	    -20.68716175	     19.29007902	     26.66144196	     -3.28013274	      7.93497951	      3.39533858	    -16.31224923
      3.74500000	     -9.69979545	     -6.38673222	     13.06840167	     -1.19428165	     -0.05420066	      0.62074067	     37.95205037	     -0.32004651	    -21.53873776	    -18.73041403	     -7.19361774	     -1.57531197	      2.74540922	     -5.18468631	     -5.37366030	     -6.17003375	    -21.63062215	     18.74052189	     27.02837656	     -2.44022997	      8.12960641	      3.99772599	    -16.14627501
      3.75000000	     -9.71391591	     -6.85017740	     12.93227768	     -1.18687698	     -0.05476025	      0.62095010	     38.14475292	      0.17113581	    -21.28526932	    -19.66613287	     -7.76278043	     -2.44870224	      2.35456615	     -4.99905616	     -6.08376861	     -6.57695676	    -22.68583823	     18.08689318	     27.36002458	     -1.64991786	      8.33249685	      4.56315185	    -16.04247273
      3.75500000	     -9.72189452	     -7.31432557	     12.67133376	     -1.17934791	     -0.05523443	      0.62125723	     38.31908901	      0.75172468	    -20.89365458	    -20.59651294	     -8.18756272	     -3.20015271	      1.88892827	     -4.83309876	     -6.79931141	     -7.12247004	    -23.74378190	     17.20915369	     27.65549210	     -0.39843651	      8.53445644	      5.15630756	    -15.81349912
      3.76000000	     -9.76299377	     -7.75563848	     12.51634098	     -1.17194019	     -0.05561147	      0.62151658	     38.50066010	      1.26049052	    -20.57580906	    -21.48989584	     -8.54158376	     -4.13529164	      1.51696990	     -4.52636072	     -7.50301632	     -7.49659601	    -24.96807513	     16.26154392	     27.94585546	      0.47160496	      8.76018847	      5.68690689	    -15.74370870
      3.76500000	     -9.77057963	     -8.15932593	     12.22723787	     -1.16449905	     -0.05590200	      0.62195546	     38.63114189	      1.84653582	    -20.17106655	    -22.35937268	     -8.78825839	     -5.00298617	      1.16236419	     -4.26260006	     -8.19240925	     -8.03211280	    -26.21075945	     15.06756956	     28.26094222	      1.94103210	      8.92091454	      6.20687407	    -15.42193100
      3.77000000	     -9.78681667	     -8.55306074	     11.93861378	     -1.15699963	     -0.05605440	      0.62235795	     38.70185257	      2.44999410	    -19.71027522	    -23.11619354	     -8.92930336	     -5.77812591	      0.94790250	     -3.95536407	     -8.87255159	     -8.51159211	    -27.48981950	     13.61333762	     28.42278673	      3.65767267	      9.10286461	      6.71781184	    -15.18180038
      3.77500000	     -9.83021969	     -8.91891995	     11.73487444	     -1.14959534	     -0.05615344	      0.62279321	     38.75641318	      3.00736316	    -19.28339439	    -23.79694243	     -8.97672434	     -6.65532479	      0.84771420	     -3.51094043	     -9.55610510	     -8.88661778	    -28.94034572	     12.09824282	     28.66053438	      4.93442701	      9.30425371	      7.15323254	    -15.08833930
      3.78000000	     -9.82600936	     -9.24826670	     11.43090915	     -1.14217125	     -0.05604681	      0.62327517	     38.69950083	      3.62131254	    -18.81211924	    -24.36521876	     -9.02050480	     -7.39786343	      0.92240503	     -3.13552141	    -10.19464815	     -9.26755685	    -30.33441555	     10.22769640	     28.64722916	      6.87141353	      9.43126353	      7.59550009	    -14.80205915
      3.78500000	     -9.85328521	     -9.56232046	     11.18660286	     -1.13482849	     -0.05592264	      0.62380805	     38.62762731	      4.21227009	    -18.35409916	    -24.84924047	     -8.95567782	     -8.16781178	      1.05014074	     -2.62178352	    -10.84444783	     -9.56534122	    -31.88586840	      8.32511569	     28.66484556	      8.33452068	      9.58669126	      7.98178994	    -14.62201829
      3.79000000	     -9.86632738	     -9.84562698	     10.95035470	     -1.12756473	     -0.05569536	      0.62436332	     38.49148360	      4.79031372	    -17.92651418	    -25.25038670	     -8.83326293	     -8.88341420	      1.24225064	     -2.06246062	    -11.47345443	     -9.81079336	    -33.49857905	      6.28940756	     28.55189460	      9.74120107	      9.71033455	      8.33445929	    -14.43905737
      3.79500000	     -9.92159603	    -10.15442390	     10.76779821	     -1.12039487	     -0.05543744	      0.62493066	     38.36182200	      5.35980664	    -17.60644655	    -25.57424593	     -8.67273481	     -9.51389885	      1.31704360	     -1.33922469	    -12.14447016	     -9.94524601	    -35.26946243	      4.30504244	     28.46458658	     10.39887091	      9.88676496	      8.68096150	    -14.33498530
      3.80000000	     -9.94110189	    -10.39077043	     10.53924869	     -1.11322980	     -0.05504711	      0.62558650	     38.13066726	      5.93554456	    -17.16468839	    -25.80622247	     -8.46180640	    -10.24042346	      1.45414242	     -0.65347611	    -12.73887108	    -10.09426923	    -36.98473224	      2.12073300	     28.09957805	     11.42295396	     10.00194810	      8.96303124	    -14.17843994
      3.80500000	     -9.92721334	    -10.61496764	     10.36638312	     -1.10620015	     -0.05453312	      0.62614315	     37.82084142	      6.46407643	    -16.81775930	    -25.96938164	     -8.17535574	    -10.75675273	      1.60829583	      0.08084288	    -13.30588640	    -10.09959073	    -38.74602342	     -0.04226734	     27.53248293	     12.17235129	     10.07179718	      9.23205944	    -14.06101446
      3.81000000	     -9.90519344	    -10.82833702	     10.20287168	     -1.09927491	     -0.05393848	      0.62673729	     37.46763660	      6.98627515	    -16.49427550	    -26.07159858	     -7.87217492	    -11.20701509	      1.67871767	      0.87625858	    -13.85300058	    -10.02787518	    -40.55999156	     -2.10120026	     26.84624437	     12.49998953	     10.12219787	      9.48203955	    -13.94178096
      3.81500000	     -9.82145000	    -11.02833658	     10.04171311	     -1.09243192	     -0.05324553	      0.62718859	     37.00433991	      7.49353566	    -16.20584979	    -26.11353025	     -7.44000470	    -11.43013631	      1.72029673	      1.65408070	    -14.36471364	     -9.91613751	    -42.41042589	     -3.96400188	     25.98646673	     12.35313341	     10.09467930	      9.75665158	    -13.78854196
      3.82000000	     -9.84480339	    -11.26836948	      9.93556746	     -1.08568719	     -0.05260569	      0.62779158	     36.63575677	      8.01017618	    -15.95707390	    -26.07979572	     -7.14964052	    -11.91027699	      1.67511387	      2.65916398	    -14.91802964	     -9.70828128	    -44.29788451	     -5.76373962	     25.07837747	     12.39637346	     10.19726193	      9.99812310	    -13.76634781
